<?xml version="1.0" standalone="no"?>
<!DOCTYPE svg PUBLIC "-//W3C//DTD SVG 20010904//EN"
 "http://www.w3.org/TR/2001/REC-SVG-20010904/DTD/svg10.dtd">
<svg version="1.0" xmlns="http://www.w3.org/2000/svg"
 width="280.000000pt" height="280.000000pt" viewBox="0 0 280.000000 280.000000"
 preserveAspectRatio="xMidYMid meet">

<g transform="translate(0.000000,280.000000) scale(0.100000,-0.100000)"
fill="#000000" stroke="none">
<path d="M1300 2684 c-314 -28 -593 -158 -813 -381 -249 -252 -370 -548 -370
-903 0 -224 44 -408 142 -596 181 -347 512 -594 897 -670 123 -24 367 -24 488
0 261 52 479 169 666 356 187 187 304 405 356 666 24 121 24 365 0 488 -117
590 -614 1014 -1216 1039 -58 3 -125 3 -150 1z m306 -59 c170 -27 340 -95 488
-194 83 -55 231 -193 292 -273 188 -243 285 -578 254 -873 -31 -298 -153 -557
-361 -764 -124 -124 -241 -201 -427 -282 -74 -32 -230 -68 -344 -80 -294 -29
-624 68 -866 255 -81 62 -218 209 -275 294 -100 150 -172 340 -198 521 -19
136 -7 343 29 481 122 473 506 826 997 915 97 18 302 18 411 0z"/>
<path d="M1291 2544 c-27 -34 -27 -40 9 -170 50 -179 60 -202 90 -209 55 -12
76 7 98 92 35 129 56 281 42 298 -10 11 -37 15 -115 15 -100 0 -104 -1 -124
-26z"/>
<path d="M1020 2484 c-81 -46 -100 -62 -100 -86 0 -21 223 -256 264 -278 21
-11 29 -10 61 10 24 15 34 28 31 39 -3 9 -10 36 -16 61 -24 92 -83 249 -98
263 -36 32 -73 29 -142 -9z"/>
<path d="M1674 2506 c-34 -15 -39 -25 -103 -212 -41 -121 -41 -144 4 -168 33
-18 35 -18 62 -1 46 30 243 236 249 262 8 32 -7 47 -90 93 -80 45 -79 44 -122
26z"/>
<path d="M717 2289 c-93 -84 -92 -90 36 -177 128 -87 208 -132 234 -132 11 0
32 11 47 25 l28 25 -35 63 c-56 102 -147 236 -167 247 -42 23 -73 12 -143 -51z"/>
<path d="M1942 2333 c-28 -24 -182 -271 -182 -293 0 -22 41 -60 65 -60 29 0
179 88 288 169 64 48 62 65 -18 140 -72 67 -112 78 -153 44z"/>
<path d="M534 2142 c-26 -18 -114 -135 -114 -152 0 -13 20 -30 63 -54 103 -57
249 -119 292 -124 37 -4 43 -1 59 24 18 26 18 29 2 59 -10 17 -62 82 -117 143
-93 105 -102 112 -137 112 -20 0 -42 -4 -48 -8z"/>
<path d="M2130 2083 c-33 -38 -86 -101 -117 -140 -55 -72 -55 -73 -39 -98 23
-35 41 -40 95 -26 65 17 311 138 318 157 8 21 -7 50 -62 117 -44 53 -50 57
-90 57 -41 0 -47 -4 -105 -67z"/>
<path d="M359 1875 c-22 -12 -31 -30 -48 -95 -24 -88 -21 -117 12 -125 37 -8
238 -25 302 -25 87 0 100 6 113 48 11 34 10 39 -11 54 -41 32 -298 158 -320
158 -12 -1 -34 -7 -48 -15z"/>
<path d="M2350 1872 c-19 -10 -91 -46 -158 -82 l-124 -64 6 -35 c8 -49 29 -61
104 -61 92 0 304 21 325 31 23 13 22 51 -3 133 -17 52 -27 69 -50 81 -36 19
-55 18 -100 -3z"/>
<path d="M946 1809 c-14 -17 -26 -38 -25 -47 0 -10 118 -114 267 -237 146
-121 373 -309 504 -418 204 -169 241 -197 263 -191 30 7 41 21 48 59 7 32 15
24 -542 482 -19 15 -130 108 -247 206 -117 97 -219 177 -227 177 -9 0 -27 -14
-41 -31z"/>
<path d="M1618 1687 l-217 -152 23 -23 23 -23 144 108 c80 59 175 130 212 157
37 27 67 52 67 56 0 8 -22 30 -29 29 -4 0 -104 -68 -223 -152z"/>
<path d="M1869 1732 c-107 -82 -359 -284 -359 -289 0 -7 43 -42 52 -43 6 0
298 250 357 306 21 19 22 25 11 38 -16 21 -19 20 -61 -12z"/>
<path d="M280 1545 c-21 -23 -22 -30 -17 -98 9 -100 12 -107 55 -107 40 0 266
54 324 77 37 15 39 17 36 56 -4 48 0 46 -179 77 -157 27 -190 26 -219 -5z"/>
<path d="M2320 1544 c-166 -23 -173 -25 -183 -63 -6 -26 -5 -38 6 -49 19 -18
254 -90 323 -98 30 -4 54 -2 58 4 3 5 9 48 12 94 7 84 6 85 -21 106 -32 25
-55 26 -195 6z"/>
<path d="M1190 1384 c-314 -225 -321 -235 -340 -443 -9 -102 -27 -125 -95
-119 -35 3 -51 -4 -108 -42 -47 -32 -66 -51 -67 -67 0 -27 -14 -37 -38 -24
-21 11 -56 -5 -46 -21 4 -5 22 -16 41 -24 34 -15 34 -15 118 46 67 48 90 60
122 60 78 0 133 59 155 164 11 50 19 63 54 93 45 36 64 75 64 128 0 37 24 62
178 184 51 41 91 74 90 75 -2 1 -14 11 -28 22 l-25 21 -75 -53z m-202 -276
c31 -31 3 -76 -39 -63 -33 11 -18 75 16 75 6 0 16 -5 23 -12z"/>
<path d="M1227 1225 c-107 -85 -148 -124 -156 -147 -6 -18 -23 -45 -38 -60
l-27 -28 41 0 c30 0 50 7 75 28 86 71 307 263 312 270 4 7 -45 52 -57 52 -3 0
-70 -52 -150 -115z"/>
<path d="M2046 1080 c-30 -40 -36 -53 -27 -64 14 -16 5 -63 -16 -88 -23 -26
-71 -42 -86 -29 -13 10 -36 -11 -104 -100 -10 -12 -8 -26 8 -70 11 -30 22 -55
24 -57 3 -4 369 435 373 448 2 6 -25 10 -65 10 l-69 0 -38 -50z"/>
<path d="M2053 885 c-103 -124 -188 -229 -188 -233 0 -12 146 -133 156 -130 5
2 88 98 184 213 97 116 183 217 192 227 13 15 7 22 -63 82 -42 36 -80 66 -85
66 -4 0 -92 -101 -196 -225z"/>
<path d="M735 1071 c-71 -17 -104 -51 -113 -117 -7 -46 -11 -51 -90 -112 -82
-64 -95 -85 -73 -121 13 -20 44 -6 36 18 -7 24 18 45 45 36 15 -5 35 6 80 42
59 47 60 49 60 99 0 74 15 89 92 89 l63 0 6 38 6 37 -41 -1 c-23 -1 -54 -4
-71 -8z"/>
<path d="M1450 870 c12 -24 20 -59 20 -89 0 -42 -5 -56 -29 -83 -25 -27 -33
-31 -48 -22 -27 16 -44 59 -50 125 -6 66 -16 67 -44 5 -21 -47 -24 -102 -8
-156 16 -52 5 -88 -28 -96 -50 -13 -91 64 -63 117 16 29 -7 24 -41 -10 -25
-26 -29 -37 -29 -88 0 -74 32 -145 88 -195 57 -52 105 -70 182 -70 144 -1 255
99 275 247 l7 50 -21 -32 c-27 -42 -53 -56 -85 -43 -31 11 -33 37 -11 100 20
58 19 86 -9 145 -19 42 -103 135 -121 135 -3 0 4 -18 15 -40z"/>
</g>
</svg>
