<?xml version="1.0" standalone="no"?>
<!DOCTYPE svg PUBLIC "-//W3C//DTD SVG 20010904//EN"
 "http://www.w3.org/TR/2001/REC-SVG-20010904/DTD/svg10.dtd">
<svg version="1.0" xmlns="http://www.w3.org/2000/svg"
 width="730.000000pt" height="730.000000pt" viewBox="0 0 730.000000 730.000000"
 preserveAspectRatio="xMidYMid meet">

<g transform="translate(0.000000,730.000000) scale(0.100000,-0.100000)"
fill="#000000" stroke="none">
<path d="M3460 6999 c-713 -33 -1402 -300 -1960 -758 -732 -602 -1181 -1497
-1218 -2428 -25 -610 90 -1151 354 -1674 484 -958 1389 -1624 2444 -1798 340
-56 736 -58 1068 -5 820 129 1557 552 2081 1194 455 557 721 1252 749 1958 25
609 -90 1150 -354 1673 -374 740 -995 1305 -1771 1613 -315 125 -696 208
-1007 221 -67 3 -146 7 -176 9 -30 1 -125 -1 -210 -5z m578 -184 c1176 -163
2141 -920 2568 -2016 91 -233 152 -475 191 -751 24 -173 24 -623 0 -796 -54
-382 -152 -703 -316 -1031 -436 -872 -1258 -1503 -2208 -1696 -244 -49 -350
-59 -643 -59 -293 0 -399 10 -643 59 -950 193 -1772 825 -2208 1696 -163 326
-262 650 -316 1031 -24 173 -24 623 0 796 102 729 409 1353 912 1857 531 531
1220 853 1975 925 137 13 553 4 688 -15z"/>
<path d="M1390 4020 l0 -100 175 0 175 0 0 -450 0 -451 133 3 132 3 -4 262
c-2 145 0 346 4 448 l7 185 164 0 164 0 0 100 0 100 -475 0 -475 0 0 -100z"/>
<path d="M2658 3660 c-1 -253 -3 -499 -3 -547 l0 -88 133 -3 132 -3 0 206 0
205 195 0 195 0 0 110 0 110 -195 0 -196 0 3 133 3 132 243 3 242 2 0 100 0
100 -375 0 -375 0 -2 -460z"/>
<path d="M3740 3570 l0 -550 130 0 130 0 2 183 3 182 100 6 c116 7 142 13 210
46 142 70 213 220 185 394 -20 131 -67 200 -166 246 -79 36 -140 43 -375 43
l-219 0 0 -550z m435 321 c43 -24 60 -65 59 -142 0 -112 -50 -159 -166 -159
l-68 0 0 134 c0 73 3 148 6 165 l7 32 66 -6 c36 -4 80 -15 96 -24z"/>
<path d="M4812 3708 c4 -394 5 -415 25 -466 46 -114 125 -178 263 -213 72 -18
103 -21 210 -16 189 8 302 55 381 161 71 94 73 104 77 549 l3 397 -125 0 -125
0 -4 -372 c-4 -407 -6 -424 -62 -483 -71 -76 -246 -74 -325 5 -57 57 -60 83
-60 489 l0 361 -131 0 -131 0 4 -412z"/>
</g>
</svg>
